<?xml version="1.0" encoding="UTF-8"?>
<svg width="287px" height="226px" viewBox="0 0 287 226" version="1.1" xmlns="http://www.w3.org/2000/svg" xmlns:xlink="http://www.w3.org/1999/xlink">
    <!-- Generator: Sketch 51.2 (57519) - http://www.bohemiancoding.com/sketch -->
    <title>UX PODCAST</title>
    <desc>Created with Sketch.</desc>
    <defs></defs>
    <g id="Page-1" stroke="none" stroke-width="1" fill="none" fill-rule="evenodd">
        <g id="Desktop-HD" transform="translate(-20.000000, -20.000000)" fill="#DFDFDF">
            <path d="M31.0043436,20 L62.629763,20 L62.629763,111.541949 C62.629763,121.780687 63.842227,129.257549 66.2671914,133.972757 C70.0393583,142.325412 78.2571699,146.501677 90.920873,146.501677 C103.517216,146.501677 111.701348,142.325412 115.473515,133.972757 C117.898479,129.257549 119.110943,121.780687 119.110943,111.541949 L119.110943,20 L150.736363,20 L150.736363,111.541949 C150.736363,127.371577 148.277755,139.698295 143.360466,148.522471 C134.199489,164.6889 116.7198,172.771994 90.920873,172.771994 C65.1219461,172.771994 47.6085769,164.6889 38.3802402,148.522471 C33.4629512,139.698295 31.0043436,127.371577 31.0043436,111.541949 L31.0043436,20 Z M204.186353,168.932486 L168.014148,168.932486 L215.906955,93.0516875 L170.33806,20 L207.520662,20 L234.094097,68.398006 L261.374811,20 L297.344936,20 L251.776041,91.8392114 L300.174047,168.932486 L262.385207,168.932486 L234.094097,118.210567 L204.186353,168.932486 Z M44.0227449,215.471362 C44.0227449,213.233509 43.4341011,211.637846 42.2567958,210.684326 C41.0794906,209.730807 39.430315,209.254054 37.3092196,209.254054 L28.9319076,209.254054 L28.9319076,221.922184 L37.3092196,221.922184 C39.430315,221.922184 41.0794906,221.406513 42.2567958,220.375154 C43.4341011,219.343796 44.0227449,217.709215 44.0227449,215.471362 Z M52.9254632,215.412983 C52.9254632,220.491937 51.6411495,224.082177 49.0724835,226.183813 C46.5038175,228.285449 42.8357396,229.336251 38.0681398,229.336251 L28.9319076,229.336251 L28.9319076,244.806549 L20,244.806549 L20,201.781608 L38.7394924,201.781608 C43.0595215,201.781608 46.5038175,202.890788 49.0724835,205.109182 C51.6411495,207.327575 52.9254632,210.762141 52.9254632,215.412983 Z M78.6995625,238.384916 C82.2606677,238.384916 85.0871308,237.071413 87.1790369,234.444368 C89.2709429,231.817323 90.3168802,228.081138 90.3168802,223.2357 C90.3168802,218.409721 89.2709429,214.678401 87.1790369,212.041626 C85.0871308,209.404852 82.2606677,208.086484 78.6995625,208.086484 C75.1384574,208.086484 72.2973997,209.399987 70.1763043,212.027032 C68.0552089,214.654076 66.9946771,218.390262 66.9946771,223.2357 C66.9946771,228.081138 68.0552089,231.817323 70.1763043,234.444368 C72.2973997,237.071413 75.1384574,238.384916 78.6995625,238.384916 Z M99.3071663,223.2357 C99.3071663,230.961157 97.1374544,236.876784 92.7979657,240.982758 C89.548214,244.329808 84.8487933,246.003307 78.6995625,246.003307 C72.5503318,246.003307 67.8509111,244.329808 64.6011594,240.982758 C60.242211,236.876784 58.0627695,230.961157 58.0627695,223.2357 C58.0627695,215.354566 60.242211,209.438939 64.6011594,205.488642 C67.8509111,202.141592 72.5503318,200.468092 78.6995625,200.468092 C84.8487933,200.468092 89.548214,202.141592 92.7979657,205.488642 C97.1374544,209.438939 99.3071663,215.354566 99.3071663,223.2357 Z M114.894221,209.254054 L114.894221,237.334103 L123.183965,237.334103 C127.426156,237.334103 130.383969,235.242228 132.057494,231.058416 C132.972095,228.762185 133.429388,226.028153 133.429388,222.85624 C133.429388,218.477832 132.743448,215.116238 131.371547,212.771357 C129.999646,210.426476 127.270479,209.254054 123.183965,209.254054 L114.894221,209.254054 Z M124.701805,201.781608 C127.367769,201.820527 129.58613,202.131876 131.356952,202.715664 C134.373189,203.708103 136.815331,205.527547 138.683452,208.174052 C140.18184,210.314607 141.203453,212.630263 141.748322,215.121091 C142.29319,217.611919 142.565621,219.985953 142.565621,222.243266 C142.565621,227.964385 141.417522,232.809751 139.12129,236.779507 C136.007756,242.130895 131.201309,244.806549 124.701805,244.806549 L106.166638,244.806549 L106.166638,201.781608 L124.701805,201.781608 Z M147.469413,223.644349 C147.469413,216.132947 149.48345,210.343806 153.511586,206.276751 C157.014312,202.735106 161.470492,200.964309 166.880258,200.964309 C174.119226,200.964309 179.412155,203.338344 182.759205,208.086484 C184.607866,210.752448 185.60029,213.428102 185.736507,216.113525 L176.746221,216.113525 C176.162433,214.050809 175.41325,212.494065 174.49865,211.443247 C172.864044,209.575126 170.441361,208.64108 167.230529,208.64108 C163.961318,208.64108 161.38296,209.959447 159.49538,212.596222 C157.6078,215.232996 156.664024,218.964317 156.664024,223.790295 C156.664024,228.616274 157.661313,232.230839 159.655921,234.634098 C161.650529,237.037358 164.185103,238.238969 167.259718,238.238969 C170.412172,238.238969 172.815395,237.207627 174.46946,235.14491 C175.384061,234.035713 176.142974,232.371943 176.746221,230.15355 L185.648939,230.15355 C184.870556,234.843311 182.880843,238.657334 179.67974,241.595732 C176.478637,244.53413 172.37759,246.003307 167.376475,246.003307 C161.188325,246.003307 156.3235,244.018459 152.781855,240.048702 C149.240209,236.059486 147.469413,230.591423 147.469413,223.644349 Z M204.271675,228.548142 L215.188451,228.548142 L209.817631,211.618382 L204.271675,228.548142 Z M204.82627,201.781608 L214.984126,201.781608 L230.22091,244.806549 L220.471703,244.806549 L217.698725,235.962209 L201.848968,235.962209 L198.871665,244.806549 L189.47273,244.806549 L204.82627,201.781608 Z M242.188498,231.525444 C242.460933,233.490863 242.996063,234.96004 243.793906,235.933019 C245.253376,237.703842 247.753896,238.58924 251.295541,238.58924 C253.416637,238.58924 255.138785,238.355729 256.462037,237.888699 C258.972324,236.993557 260.227449,235.329787 260.227449,232.897338 C260.227449,231.476788 259.604751,230.377338 258.359337,229.598954 C257.113924,228.84003 255.158264,228.168684 252.4923,227.584897 L247.938779,226.563273 C243.463073,225.551375 240.369044,224.451924 238.6566,223.264889 C235.757121,221.280011 234.307403,218.176253 234.307403,213.953521 C234.307403,210.100522 235.708473,206.899468 238.510654,204.350261 C241.312835,201.801055 245.428477,200.526471 250.857703,200.526471 C255.391787,200.526471 259.259323,201.728083 262.460426,204.131342 C265.661528,206.534601 267.339893,210.022681 267.49557,214.595685 L258.855555,214.595685 C258.699878,212.007559 257.571238,210.168655 255.469603,209.078918 C254.068512,208.358913 252.326905,207.998916 250.244729,207.998916 C247.929037,207.998916 246.080404,208.46594 244.698773,209.4 C243.317142,210.33406 242.626337,211.637833 242.626337,213.311358 C242.626337,214.848666 243.307412,215.996764 244.669584,216.755689 C245.545265,217.261638 247.413358,217.855146 250.273918,218.536232 L257.687985,220.316776 C260.937737,221.095159 263.389608,222.136232 265.043673,223.440025 C267.612339,225.463822 268.896653,228.392447 268.896653,232.225986 C268.896653,236.156823 267.393422,239.421121 264.386916,242.018976 C261.380409,244.616831 257.133417,245.91574 251.645812,245.91574 C246.04145,245.91574 241.633919,244.636291 238.423086,242.077355 C235.212254,239.518418 233.606862,236.00115 233.606862,231.525444 L242.188498,231.525444 Z M306.813477,201.781608 L306.813477,209.4 L293.941022,209.4 L293.941022,244.806549 L284.892357,244.806549 L284.892357,209.4 L271.961523,209.4 L271.961523,201.781608 L306.813477,201.781608 Z" id="UX-PODCAST"></path>
        </g>
    </g>
</svg>